<svg xmlns="http://www.w3.org/2000/svg" fill="none" viewBox="0 0 16 16" width="128" height="128">
  <g filter="url(#a)">
    <g clip-path="url(#b)">
      <rect width="16" height="16" fill="#fff" rx="3"/>
      <path fill="#7D3500" fill-rule="evenodd" d="m0 7.42857 3 1.71428 3-1.71428-3-1.71429-3 1.71429Zm0 3.42853 3 1.7143-3 1.7143L3 16l-3 1.7143 3 1.7143 3-1.7143 3 1.7143 3-1.7143 3 1.7143 3-1.7143L15 16l3-1.7143-3-1.7143-3 1.7143-3-1.7143 3-1.7143-3-1.71424-3 1.71424-3-1.71424-3 1.71424Zm6 3.4286 3-1.7143-3-1.7143-3 1.7143 3 1.7143ZM9 16l3-1.7143L15 16l-3 1.7143L9 16Zm0 0-3-1.7143L3 16l3 1.7143L9 16Z" clip-rule="evenodd"/>
      <g filter="url(#c)">
        <path fill="#FFBF84" fill-rule="evenodd" d="M2.4e-7 7.42857-3 5.71429 2.4e-7 4 3 5.71429 2.4e-7 7.42857ZM3 9.14286 2.4e-7 7.42857-3 9.14286 2.4e-7 10.8571-3 12.5714 2.4e-7 14.2857-3 16 2.4e-7 17.7143 3 16l3 1.7143L9 16l3 1.7143L15 16l3 1.7143L21 16l-3-1.7143L15 16l-3-1.7143 3-1.7143-3-1.7143-3 1.7143-3-1.7143 3-1.71424-3-1.71429-3 1.71429Zm0 3.42854L2.4e-7 10.8571 3 9.14286l3 1.71424-3 1.7143Zm3 1.7143L3 16 2.4e-7 14.2857 3 12.5714l3 1.7143Zm0 0 3-1.7143 3 1.7143L9 16l-3-1.7143Z" clip-rule="evenodd"/>
      </g>
      <g filter="url(#d)">
        <path fill="#7D3500" d="M0 .571426V4l16 9.1429V9.71428L0 .571426Z"/>
      </g>
      <g filter="url(#e)">
        <path fill="#FFBF84" d="M0 0v.571429L16 9.71429V0H0Z"/>
      </g>
      <g filter="url(#f)">
        <path fill="#000" fill-rule="evenodd" d="M13 5.71428c0-.31559-.4477-.57143-1-.57143s-1 .25584-1 .57143l-.9721 6.66582c-.0183.0622-.0279.1261-.0279.1913 0 .6312.8954 1.1429 2 1.1429s2-.5117 2-1.1429c0-.0652-.0096-.1291-.0279-.1913L13 5.71428Z" clip-rule="evenodd"/>
      </g>
      <g filter="url(#g)">
        <path fill="#fff" fill-rule="evenodd" d="M10 7.42858c0-.3156-.44772-.57143-1-.57143s-1 .25583-1 .57143l-.9721 6.66582c-.01835.0622-.0279.1261-.0279.1913 0 .6312.89543 1.1429 2 1.1429 1.1046 0 2-.5117 2-1.1429 0-.0652-.0096-.1291-.0279-.1913L10 7.42858Z" clip-rule="evenodd"/>
      </g>
      <g filter="url(#h)">
        <path fill="#fff" fill-rule="evenodd" d="M4 7.42858c0-.3156-.44772-.57143-1-.57143s-1 .25583-1 .57143l-.9721 6.66582c-.01835.0622-.0279.1261-.0279.1913 0 .6312.89543 1.1429 2 1.1429s2-.5117 2-1.1429c0-.0652-.00955-.1291-.0279-.1913L4 7.42858Z" clip-rule="evenodd"/>
      </g>
    </g>
  </g>
  <defs>
    <filter id="a" width="16" height="18" x="0" y="0" color-interpolation-filters="sRGB" filterUnits="userSpaceOnUse">
      <feFlood flood-opacity="0" result="BackgroundImageFix"/>
      <feBlend in="SourceGraphic" in2="BackgroundImageFix" result="shape"/>
      <feColorMatrix in="SourceAlpha" result="hardAlpha" values="0 0 0 0 0 0 0 0 0 0 0 0 0 0 0 0 0 0 127 0"/>
      <feOffset dy="2"/>
      <feGaussianBlur stdDeviation="2"/>
      <feComposite in2="hardAlpha" k2="-1" k3="1" operator="arithmetic"/>
      <feColorMatrix values="0 0 0 0 0 0 0 0 0 0 0 0 0 0 0 0 0 0 0.25 0"/>
      <feBlend in2="shape" result="effect1_innerShadow_420_49891"/>
    </filter>
    <filter id="c" width="32" height="21.7143" x="-7" y="2" color-interpolation-filters="sRGB" filterUnits="userSpaceOnUse">
      <feFlood flood-opacity="0" result="BackgroundImageFix"/>
      <feColorMatrix in="SourceAlpha" result="hardAlpha" values="0 0 0 0 0 0 0 0 0 0 0 0 0 0 0 0 0 0 127 0"/>
      <feOffset dy="2"/>
      <feGaussianBlur stdDeviation="2"/>
      <feComposite in2="hardAlpha" operator="out"/>
      <feColorMatrix values="0 0 0 0 0 0 0 0 0 0 0 0 0 0 0 0 0 0 0.25 0"/>
      <feBlend in2="BackgroundImageFix" result="effect1_dropShadow_420_49891"/>
      <feBlend in="SourceGraphic" in2="effect1_dropShadow_420_49891" result="shape"/>
      <feColorMatrix in="SourceAlpha" result="hardAlpha" values="0 0 0 0 0 0 0 0 0 0 0 0 0 0 0 0 0 0 127 0"/>
      <feOffset dy="2"/>
      <feGaussianBlur stdDeviation="2"/>
      <feComposite in2="hardAlpha" k2="-1" k3="1" operator="arithmetic"/>
      <feColorMatrix values="0 0 0 0 1 0 0 0 0 1 0 0 0 0 1 0 0 0 0.25 0"/>
      <feBlend in2="shape" result="effect2_innerShadow_420_49891"/>
    </filter>
    <filter id="d" width="16" height="14.5714" x="0" y="-1.42857" color-interpolation-filters="sRGB" filterUnits="userSpaceOnUse">
      <feFlood flood-opacity="0" result="BackgroundImageFix"/>
      <feBlend in="SourceGraphic" in2="BackgroundImageFix" result="shape"/>
      <feColorMatrix in="SourceAlpha" result="hardAlpha" values="0 0 0 0 0 0 0 0 0 0 0 0 0 0 0 0 0 0 127 0"/>
      <feOffset dy="-2"/>
      <feGaussianBlur stdDeviation="2"/>
      <feComposite in2="hardAlpha" k2="-1" k3="1" operator="arithmetic"/>
      <feColorMatrix values="0 0 0 0 0 0 0 0 0 0 0 0 0 0 0 0 0 0 0.25 0"/>
      <feBlend in2="shape" result="effect1_innerShadow_420_49891"/>
    </filter>
    <filter id="e" width="16" height="11.7143" x="0" y="-2" color-interpolation-filters="sRGB" filterUnits="userSpaceOnUse">
      <feFlood flood-opacity="0" result="BackgroundImageFix"/>
      <feBlend in="SourceGraphic" in2="BackgroundImageFix" result="shape"/>
      <feColorMatrix in="SourceAlpha" result="hardAlpha" values="0 0 0 0 0 0 0 0 0 0 0 0 0 0 0 0 0 0 127 0"/>
      <feOffset dy="-2"/>
      <feGaussianBlur stdDeviation="2"/>
      <feComposite in2="hardAlpha" k2="-1" k3="1" operator="arithmetic"/>
      <feColorMatrix values="0 0 0 0 1 0 0 0 0 1 0 0 0 0 1 0 0 0 0.25 0"/>
      <feBlend in2="shape" result="effect1_innerShadow_420_49891"/>
    </filter>
    <filter id="f" width="12" height="16.5714" x="6" y="3.14285" color-interpolation-filters="sRGB" filterUnits="userSpaceOnUse">
      <feFlood flood-opacity="0" result="BackgroundImageFix"/>
      <feColorMatrix in="SourceAlpha" result="hardAlpha" values="0 0 0 0 0 0 0 0 0 0 0 0 0 0 0 0 0 0 127 0"/>
      <feOffset dy="2"/>
      <feGaussianBlur stdDeviation="2"/>
      <feComposite in2="hardAlpha" operator="out"/>
      <feColorMatrix values="0 0 0 0 0 0 0 0 0 0 0 0 0 0 0 0 0 0 0.25 0"/>
      <feBlend in2="BackgroundImageFix" result="effect1_dropShadow_420_49891"/>
      <feBlend in="SourceGraphic" in2="effect1_dropShadow_420_49891" result="shape"/>
    </filter>
    <filter id="g" width="12" height="16.5714" x="3" y="4.85715" color-interpolation-filters="sRGB" filterUnits="userSpaceOnUse">
      <feFlood flood-opacity="0" result="BackgroundImageFix"/>
      <feColorMatrix in="SourceAlpha" result="hardAlpha" values="0 0 0 0 0 0 0 0 0 0 0 0 0 0 0 0 0 0 127 0"/>
      <feOffset dy="2"/>
      <feGaussianBlur stdDeviation="2"/>
      <feComposite in2="hardAlpha" operator="out"/>
      <feColorMatrix values="0 0 0 0 0 0 0 0 0 0 0 0 0 0 0 0 0 0 0.25 0"/>
      <feBlend in2="BackgroundImageFix" result="effect1_dropShadow_420_49891"/>
      <feBlend in="SourceGraphic" in2="effect1_dropShadow_420_49891" result="shape"/>
      <feColorMatrix in="SourceAlpha" result="hardAlpha" values="0 0 0 0 0 0 0 0 0 0 0 0 0 0 0 0 0 0 127 0"/>
      <feOffset dy="2"/>
      <feGaussianBlur stdDeviation="2"/>
      <feComposite in2="hardAlpha" k2="-1" k3="1" operator="arithmetic"/>
      <feColorMatrix values="0 0 0 0 1 0 0 0 0 1 0 0 0 0 1 0 0 0 0.25 0"/>
      <feBlend in2="shape" result="effect2_innerShadow_420_49891"/>
    </filter>
    <filter id="h" width="12" height="16.5714" x="-3" y="4.85715" color-interpolation-filters="sRGB" filterUnits="userSpaceOnUse">
      <feFlood flood-opacity="0" result="BackgroundImageFix"/>
      <feColorMatrix in="SourceAlpha" result="hardAlpha" values="0 0 0 0 0 0 0 0 0 0 0 0 0 0 0 0 0 0 127 0"/>
      <feOffset dy="2"/>
      <feGaussianBlur stdDeviation="2"/>
      <feComposite in2="hardAlpha" operator="out"/>
      <feColorMatrix values="0 0 0 0 0 0 0 0 0 0 0 0 0 0 0 0 0 0 0.25 0"/>
      <feBlend in2="BackgroundImageFix" result="effect1_dropShadow_420_49891"/>
      <feBlend in="SourceGraphic" in2="effect1_dropShadow_420_49891" result="shape"/>
      <feColorMatrix in="SourceAlpha" result="hardAlpha" values="0 0 0 0 0 0 0 0 0 0 0 0 0 0 0 0 0 0 127 0"/>
      <feOffset dy="2"/>
      <feGaussianBlur stdDeviation="2"/>
      <feComposite in2="hardAlpha" k2="-1" k3="1" operator="arithmetic"/>
      <feColorMatrix values="0 0 0 0 1 0 0 0 0 1 0 0 0 0 1 0 0 0 0.25 0"/>
      <feBlend in2="shape" result="effect2_innerShadow_420_49891"/>
    </filter>
    <clipPath id="b">
      <rect width="16" height="16" fill="#fff" rx="3"/>
    </clipPath>
  </defs>
</svg>

